<svg id="visual" viewBox="0 0 900 600" width="900" height="600" xmlns="http://www.w3.org/2000/svg" xmlns:xlink="http://www.w3.org/1999/xlink" version="1.1"><rect x="0" y="0" width="900" height="600" fill="#f8fafc"></rect><defs><linearGradient id="grad1_0" x1="33.3%" y1="0%" x2="100%" y2="100%"><stop offset="20%" stop-color="#0f172a" stop-opacity="1"></stop><stop offset="80%" stop-color="#0f172a" stop-opacity="1"></stop></linearGradient></defs><defs><linearGradient id="grad1_1" x1="33.3%" y1="0%" x2="100%" y2="100%"><stop offset="20%" stop-color="#0f172a" stop-opacity="1"></stop><stop offset="80%" stop-color="#525a6a" stop-opacity="1"></stop></linearGradient></defs><defs><linearGradient id="grad1_2" x1="33.3%" y1="0%" x2="100%" y2="100%"><stop offset="20%" stop-color="#a0a7b0" stop-opacity="1"></stop><stop offset="80%" stop-color="#525a6a" stop-opacity="1"></stop></linearGradient></defs><defs><linearGradient id="grad1_3" x1="33.3%" y1="0%" x2="100%" y2="100%"><stop offset="20%" stop-color="#a0a7b0" stop-opacity="1"></stop><stop offset="80%" stop-color="#f8fafc" stop-opacity="1"></stop></linearGradient></defs><defs><linearGradient id="grad2_0" x1="0%" y1="0%" x2="66.7%" y2="100%"><stop offset="20%" stop-color="#0f172a" stop-opacity="1"></stop><stop offset="80%" stop-color="#0f172a" stop-opacity="1"></stop></linearGradient></defs><defs><linearGradient id="grad2_1" x1="0%" y1="0%" x2="66.7%" y2="100%"><stop offset="20%" stop-color="#525a6a" stop-opacity="1"></stop><stop offset="80%" stop-color="#0f172a" stop-opacity="1"></stop></linearGradient></defs><defs><linearGradient id="grad2_2" x1="0%" y1="0%" x2="66.7%" y2="100%"><stop offset="20%" stop-color="#525a6a" stop-opacity="1"></stop><stop offset="80%" stop-color="#a0a7b0" stop-opacity="1"></stop></linearGradient></defs><defs><linearGradient id="grad2_3" x1="0%" y1="0%" x2="66.7%" y2="100%"><stop offset="20%" stop-color="#f8fafc" stop-opacity="1"></stop><stop offset="80%" stop-color="#a0a7b0" stop-opacity="1"></stop></linearGradient></defs><g transform="translate(900, 0)"><path d="M0 540.8C-39.7 530.6 -79.3 520.4 -115.5 506C-151.6 491.6 -184.2 473.1 -220 456.8C-255.7 440.5 -294.6 426.3 -316.1 396.4C-337.6 366.5 -341.8 320.9 -365.9 291.8C-390 262.7 -434.1 250 -465.8 224.3C-497.5 198.6 -516.8 159.9 -527.3 120.3C-537.7 80.8 -539.3 40.4 -540.8 0L0 0Z" fill="#cbd0d5"></path><path d="M0 405.6C-29.8 397.9 -59.5 390.3 -86.6 379.5C-113.7 368.7 -138.2 354.8 -165 342.6C-191.8 330.3 -220.9 319.7 -237.1 297.3C-253.2 274.9 -256.3 240.7 -274.4 218.8C-292.5 197 -325.6 187.5 -349.4 168.2C-373.1 149 -387.6 119.9 -395.5 90.3C-403.3 60.6 -404.5 30.3 -405.6 0L0 0Z" fill="#787f8c"></path><path d="M0 270.4C-19.8 265.3 -39.7 260.2 -57.7 253C-75.8 245.8 -92.1 236.6 -110 228.4C-127.9 220.2 -147.3 213.1 -158.1 198.2C-168.8 183.3 -170.9 160.5 -182.9 145.9C-195 131.3 -217 125 -232.9 112.2C-248.8 99.3 -258.4 80 -263.6 60.2C-268.9 40.4 -269.6 20.2 -270.4 0L0 0Z" fill="#2f3749"></path><path d="M0 135.2C-9.9 132.6 -19.8 130.1 -28.9 126.5C-37.9 122.9 -46.1 118.3 -55 114.2C-63.9 110.1 -73.6 106.6 -79 99.1C-84.4 91.6 -85.4 80.2 -91.5 72.9C-97.5 65.7 -108.5 62.5 -116.5 56.1C-124.4 49.7 -129.2 40 -131.8 30.1C-134.4 20.2 -134.8 10.1 -135.2 0L0 0Z" fill="#0f172a"></path></g><g transform="translate(0, 600)"><path d="M0 -540.8C32.9 -505.1 65.7 -469.4 106.4 -466C147 -462.7 195.4 -491.7 234.7 -487.3C273.9 -482.9 304.1 -445 326.1 -408.9C348.1 -372.8 362.1 -338.3 389.4 -310.5C416.6 -282.7 457.3 -261.6 476.6 -229.5C495.9 -197.5 494 -154.5 501.1 -114.4C508.3 -74.3 524.5 -37.1 540.8 0L0 0Z" fill="#cbd0d5"></path><path d="M0 -405.6C24.6 -378.8 49.3 -352 79.8 -349.5C110.2 -347 146.5 -368.8 176 -365.5C205.4 -362.2 228 -333.8 244.6 -306.7C261.1 -279.6 271.5 -253.7 292 -232.9C312.5 -212 343 -196.2 357.5 -172.1C372 -148.1 370.5 -115.8 375.8 -85.8C381.2 -55.7 393.4 -27.9 405.6 0L0 0Z" fill="#787f8c"></path><path d="M0 -270.4C16.4 -252.6 32.9 -234.7 53.2 -233C73.5 -231.3 97.7 -245.8 117.3 -243.6C137 -241.4 152 -222.5 163 -204.4C174.1 -186.4 181 -169.1 194.7 -155.2C208.3 -141.4 228.6 -130.8 238.3 -114.8C248 -98.7 247 -77.2 250.6 -57.2C254.1 -37.1 262.3 -18.6 270.4 0L0 0Z" fill="#2f3749"></path><path d="M0 -135.2C8.2 -126.3 16.4 -117.3 26.6 -116.5C36.7 -115.7 48.8 -122.9 58.7 -121.8C68.5 -120.7 76 -111.3 81.5 -102.2C87 -93.2 90.5 -84.6 97.3 -77.6C104.2 -70.7 114.3 -65.4 119.2 -57.4C124 -49.4 123.5 -38.6 125.3 -28.6C127.1 -18.6 131.1 -9.3 135.2 0L0 0Z" fill="#0f172a"></path></g></svg>